<?xml version="1.0" encoding="UTF-8"?>
<svg id="Layer_1" xmlns="http://www.w3.org/2000/svg" xmlns:xlink="http://www.w3.org/1999/xlink" version="1.1" viewBox="0 0 1000 1000">
  <!-- Generator: Adobe Illustrator 30.3.0, SVG Export Plug-In . SVG Version: 2.1.3 Build 182)  -->
  <defs>
    <style>
      .st0 {
        fill: none;
      }

      .st1 {
        fill: #fff;
      }

      .st2 {
        clip-path: url(#clippath);
      }
    </style>
    <clipPath id="clippath">
      <rect class="st0" width="1000" height="1000" rx="350" ry="350"/>
    </clipPath>
  </defs>
  <g id="light-icon">
    <g class="st2">
      <g>
        <rect width="1000" height="1000"/>
        <g>
          <path class="st1" d="M640.14,623.83c-46.44-119.67-234.83-127.14-292.39-241.19-24.11-47.78-13.11-101.14,23.75-138.11,0,0-16.86,13.25-22.11,18.11-50.92,47.14-55.19,123.39-17.97,181.81,3.22,5.08,6.58,10.03,10.14,14.83h0s17.67,36.97,136.78,97.53h0c13.5,7.22,26.25,13.92,35.42,18.83,34.53,18.94,70.5,41.92,89.81,75.86,15,26.39,13.94,58.17-4.33,83.08-13.86,18.92-34.67,31.03-57.44,37.5-66.19,18.86-135.58-8.67-180.06-59.33-37.06-42.22-54-87.19-67.53-140.11l-.25,190.89c13.61-8.42,28.72-12.58,44.19-8.06l53.42,15.64c63.67,22.25,140.36,31.17,198.83-5.19,47.92-29.78,70.28-89.17,49.72-142.11l.03.03Z"/>
          <path class="st1" d="M658,507.75c-21.39-22.33-45.19-41.25-72.67-55.92l-87.31-46.58c-35.53-18.94-76.86-41.25-96.83-75.72-19.19-33.14-8.31-73.08,25.89-91.72,35.25-19.19,77.94-19.25,114.72-2.81,61.19,30.14,95.86,91.78,112.19,155.97l.31-164.17c-12.25,9-27.33,12.56-42.03,8.47l-44.14-12.25c-56.61-17.19-124.17-21.72-170.22,17.94-35.42,30.47-45.83,79.97-27.94,122.78,18.03,43.17,57.19,70.69,98.11,92.31l73.92,39.03c27.03,14.28,51.89,30.19,74.81,50.22,48.83,42.69,74.08,100.94,47.72,162.47-7.78,21.11-21.42,36.67-36.86,53.78,25.86-15.39,45.28-37.25,59.11-63.19,35.5-66.58,23.39-136.17-28.72-190.58l-.06-.03Z"/>
        </g>
      </g>
    </g>
  </g>
</svg>